<svg width="40" height="30" viewBox="0 0 40 30" fill="none" xmlns="http://www.w3.org/2000/svg">
<path d="M26 20H29C29.5 20 30 19.5 30 19V8.5C30 8 29.5 7.5 29 7.5H26C25.5 7.5 25 8 25 8.5V19C25 19.5 25.5 20 26 20ZM33.5 20H36.5C37 20 37.5 19.5 37.5 19V1C37.5 0.5 37 0 36.5 0H33.5C33 0 32.5 0.5 32.5 1V19C32.5 19.5 33 20 33.5 20ZM11 20H14C14.5 20 15 19.5 15 19V13.5C15 13 14.5 12.5 14 12.5H11C10.5 12.5 10 13 10 13.5V19C10 19.5 10.5 20 11 20ZM18.5 20H21.5C22 20 22.5 19.5 22.5 19V3.5C22.5 3 22 2.5 21.5 2.5H18.5C18 2.5 17.5 3 17.5 3.5V19C17.5 19.5 18 20 18.5 20ZM38.75 25H5V1.25C5 0.559375 4.44063 0 3.75 0H1.25C0.559375 0 0 0.559375 0 1.25V27.5C0 28.8805 1.11953 30 2.5 30H38.75C39.4406 30 40 29.4406 40 28.75V26.25C40 25.5594 39.4406 25 38.75 25Z" fill="#FFFAFA"/>
</svg>
