<svg width="40" height="28" viewBox="0 0 40 28" fill="none" xmlns="http://www.w3.org/2000/svg">
<path d="M38.1562 19.3312C38.3187 18.45 38.3187 17.55 38.1562 16.6687L39.7687 15.7375C39.9562 15.6312 40.0375 15.4125 39.975 15.2062C39.5562 13.8562 38.8375 12.6312 37.9 11.6187C37.7563 11.4625 37.525 11.425 37.3375 11.5312L35.725 12.4625C35.0437 11.8812 34.2625 11.4312 33.4188 11.1312V9.26872C33.4188 9.05622 33.2687 8.86872 33.0625 8.82497C31.6688 8.51247 30.25 8.52497 28.925 8.82497C28.7188 8.86872 28.5688 9.05622 28.5688 9.26872V11.1312C27.725 11.4312 26.9438 11.8812 26.2625 12.4625L24.65 11.5312C24.4688 11.425 24.2312 11.4625 24.0875 11.6187C23.15 12.6312 22.4313 13.8562 22.0125 15.2062C21.95 15.4125 22.0375 15.6312 22.2188 15.7375L23.8312 16.6687C23.6687 17.55 23.6687 18.45 23.8312 19.3312L22.2188 20.2625C22.0312 20.3687 21.95 20.5875 22.0125 20.7937C22.4313 22.1437 23.15 23.3625 24.0875 24.3812C24.2312 24.5375 24.4625 24.575 24.65 24.4687L26.2625 23.5375C26.9438 24.1187 27.725 24.5687 28.5688 24.8687V26.7312C28.5688 26.9437 28.7188 27.1312 28.925 27.175C30.3187 27.4875 31.7375 27.475 33.0625 27.175C33.2687 27.1312 33.4188 26.9437 33.4188 26.7312V24.8687C34.2625 24.5687 35.0437 24.1187 35.725 23.5375L37.3375 24.4687C37.5188 24.575 37.7563 24.5375 37.9 24.3812C38.8375 23.3687 39.5562 22.1437 39.975 20.7937C40.0375 20.5875 39.95 20.3687 39.7687 20.2625L38.1562 19.3312ZM31 21.0312C29.325 21.0312 27.9688 19.6687 27.9688 18C27.9688 16.3312 29.3312 14.9687 31 14.9687C32.6688 14.9687 34.0312 16.3312 34.0312 18C34.0312 19.6687 32.675 21.0312 31 21.0312ZM6 12C8.20625 12 10 10.2062 10 7.99997C10 5.79372 8.20625 3.99997 6 3.99997C3.79375 3.99997 2 5.79372 2 7.99997C2 10.2062 3.79375 12 6 12ZM20 14C20.1187 14 20.2313 13.9687 20.35 13.9625C20.8687 12.6062 21.6313 11.3312 22.6187 10.2625C23.0812 9.76247 23.7375 9.47497 24.425 9.47497C24.8562 9.47497 25.2812 9.58747 25.65 9.80622L26.1437 10.0937C26.1937 10.0625 26.2438 10.0375 26.2938 10.0062C26.7313 9.09372 26.9937 8.08122 26.9937 7.00622C26.9937 3.13748 23.8625 0.00622559 19.9937 0.00622559C16.125 0.00622559 13 3.13122 13 6.99997C13 10.8687 16.1313 14 20 14ZM26.575 26.1562C26.4313 26.0812 26.2875 25.9937 26.15 25.9125C25.6375 26.2125 25.1938 26.525 24.4312 26.525C23.75 26.525 23.0938 26.2375 22.625 25.7375C21.4813 24.5 20.6062 22.9937 20.1125 21.3875C19.4437 19.2312 21.6688 18.2812 21.725 18.2437C21.7188 18.0812 21.7188 17.9187 21.725 17.7562L21.2313 17.4687C20.9938 17.3312 20.7937 17.1562 20.6187 16.9625C20.4125 16.975 20.2125 17 20.0063 17C18.4688 17 17.0312 16.625 15.725 16H15.2063C11.225 16 8 19.225 8 23.2V25C8 26.6562 9.34375 28 11 28H26.9625C26.7312 27.625 26.575 27.2 26.575 26.7312V26.1562ZM10.8188 15.1625C10.0938 14.4437 9.1 14 8 14H4C1.79375 14 0 15.7937 0 18V20C0 21.1062 0.89375 22 2 22H6.11875C6.5125 19.0375 8.3 16.5437 10.8188 15.1625Z" fill="white"/>
</svg>
