<svg width="40" height="46" viewBox="0 0 40 46" fill="none" xmlns="http://www.w3.org/2000/svg">
<path d="M20 22.8571C26.3125 22.8571 31.4286 17.7411 31.4286 11.4286C31.4286 5.11607 26.3125 0 20 0C13.6875 0 8.57143 5.11607 8.57143 11.4286C8.57143 17.7411 13.6875 22.8571 20 22.8571ZM28.5536 25.7679L24.2857 42.8571L21.4286 30.7143L24.2857 25.7143H15.7143L18.5714 30.7143L15.7143 42.8571L11.4464 25.7679C5.08036 26.0714 0 31.2768 0 37.7143V41.4286C0 43.7946 1.91964 45.7143 4.28571 45.7143H35.7143C38.0804 45.7143 40 43.7946 40 41.4286V37.7143C40 31.2768 34.9196 26.0714 28.5536 25.7679Z" fill="white"/>
</svg>
