<svg width="126" height="13" viewBox="0 0 126 13" fill="none" xmlns="http://www.w3.org/2000/svg">
<path d="M10.0156 10.5625C9.59375 11.0677 8.9974 11.4609 8.22656 11.7422C7.45573 12.0182 6.60156 12.1562 5.66406 12.1562C4.67969 12.1562 3.8151 11.9427 3.07031 11.5156C2.33073 11.0833 1.75781 10.4583 1.35156 9.64062C0.950521 8.82292 0.744792 7.86198 0.734375 6.75781V5.98438C0.734375 4.84896 0.924479 3.86719 1.30469 3.03906C1.6901 2.20573 2.24219 1.57031 2.96094 1.13281C3.6849 0.690104 4.53125 0.46875 5.5 0.46875C6.84896 0.46875 7.90365 0.791667 8.66406 1.4375C9.42448 2.07812 9.875 3.01302 10.0156 4.24219H7.73438C7.63021 3.59115 7.39844 3.11458 7.03906 2.8125C6.6849 2.51042 6.19531 2.35938 5.57031 2.35938C4.77344 2.35938 4.16667 2.65885 3.75 3.25781C3.33333 3.85677 3.1224 4.7474 3.11719 5.92969V6.65625C3.11719 7.84896 3.34375 8.75 3.79688 9.35938C4.25 9.96875 4.91406 10.2734 5.78906 10.2734C6.66927 10.2734 7.29688 10.0859 7.67188 9.71094V7.75H5.53906V6.02344H10.0156V10.5625ZM15.6641 12.1562C14.4245 12.1562 13.4141 11.776 12.6328 11.0156C11.8568 10.2552 11.4688 9.24219 11.4688 7.97656V7.75781C11.4688 6.90885 11.6328 6.15104 11.9609 5.48438C12.2891 4.8125 12.7526 4.29688 13.3516 3.9375C13.9557 3.57292 14.6432 3.39062 15.4141 3.39062C16.5703 3.39062 17.4792 3.75521 18.1406 4.48438C18.8073 5.21354 19.1406 6.2474 19.1406 7.58594V8.50781H13.7578C13.8307 9.0599 14.0495 9.5026 14.4141 9.83594C14.7839 10.1693 15.25 10.3359 15.8125 10.3359C16.6823 10.3359 17.362 10.0208 17.8516 9.39062L18.9609 10.6328C18.6224 11.112 18.1641 11.487 17.5859 11.7578C17.0078 12.0234 16.3672 12.1562 15.6641 12.1562ZM15.4062 5.21875C14.9583 5.21875 14.5938 5.36979 14.3125 5.67188C14.0365 5.97396 13.8594 6.40625 13.7812 6.96875H16.9219V6.78906C16.9115 6.28906 16.776 5.90365 16.5156 5.63281C16.2552 5.35677 15.8854 5.21875 15.4062 5.21875ZM22.5078 3.54688L22.5781 4.52344C23.1823 3.76823 23.9922 3.39062 25.0078 3.39062C25.9036 3.39062 26.5703 3.65365 27.0078 4.17969C27.4453 4.70573 27.6693 5.49219 27.6797 6.53906V12H25.4219V6.59375C25.4219 6.11458 25.3177 5.76823 25.1094 5.55469C24.901 5.33594 24.5547 5.22656 24.0703 5.22656C23.4349 5.22656 22.9583 5.4974 22.6406 6.03906V12H20.3828V3.54688H22.5078ZM32.1016 1.46875V3.54688H33.5469V5.20312H32.1016V9.42188C32.1016 9.73438 32.1615 9.95833 32.2812 10.0938C32.401 10.2292 32.6302 10.2969 32.9688 10.2969C33.2188 10.2969 33.4401 10.2786 33.6328 10.2422V11.9531C33.1901 12.0885 32.7344 12.1562 32.2656 12.1562C30.6823 12.1562 29.875 11.3568 29.8438 9.75781V5.20312H28.6094V3.54688H29.8438V1.46875H32.1016ZM38.6953 12.1562C37.4557 12.1562 36.4453 11.776 35.6641 11.0156C34.888 10.2552 34.5 9.24219 34.5 7.97656V7.75781C34.5 6.90885 34.6641 6.15104 34.9922 5.48438C35.3203 4.8125 35.7839 4.29688 36.3828 3.9375C36.987 3.57292 37.6745 3.39062 38.4453 3.39062C39.6016 3.39062 40.5104 3.75521 41.1719 4.48438C41.8385 5.21354 42.1719 6.2474 42.1719 7.58594V8.50781H36.7891C36.862 9.0599 37.0807 9.5026 37.4453 9.83594C37.8151 10.1693 38.2812 10.3359 38.8438 10.3359C39.7135 10.3359 40.3932 10.0208 40.8828 9.39062L41.9922 10.6328C41.6536 11.112 41.1953 11.487 40.6172 11.7578C40.0391 12.0234 39.3984 12.1562 38.6953 12.1562ZM38.4375 5.21875C37.9896 5.21875 37.625 5.36979 37.3438 5.67188C37.0677 5.97396 36.8906 6.40625 36.8125 6.96875H39.9531V6.78906C39.9427 6.28906 39.8073 5.90365 39.5469 5.63281C39.2865 5.35677 38.9167 5.21875 38.4375 5.21875ZM49.9375 7.99219V12H47.5938V0.625H52.0312C52.8854 0.625 53.6354 0.78125 54.2812 1.09375C54.9323 1.40625 55.4323 1.85156 55.7812 2.42969C56.1302 3.0026 56.3047 3.65625 56.3047 4.39062C56.3047 5.50521 55.9219 6.38542 55.1562 7.03125C54.3958 7.67188 53.3411 7.99219 51.9922 7.99219H49.9375ZM49.9375 6.09375H52.0312C52.651 6.09375 53.1224 5.94792 53.4453 5.65625C53.7734 5.36458 53.9375 4.94792 53.9375 4.40625C53.9375 3.84896 53.7734 3.39844 53.4453 3.05469C53.1172 2.71094 52.6641 2.53385 52.0859 2.52344H49.9375V6.09375ZM62.5234 5.66406C62.2161 5.6224 61.9453 5.60156 61.7109 5.60156C60.8568 5.60156 60.2969 5.89062 60.0312 6.46875V12H57.7734V3.54688H59.9062L59.9688 4.55469C60.4219 3.77865 61.0495 3.39062 61.8516 3.39062C62.1016 3.39062 62.3359 3.42448 62.5547 3.49219L62.5234 5.66406ZM67.3516 12.1562C66.112 12.1562 65.1016 11.776 64.3203 11.0156C63.5443 10.2552 63.1562 9.24219 63.1562 7.97656V7.75781C63.1562 6.90885 63.3203 6.15104 63.6484 5.48438C63.9766 4.8125 64.4401 4.29688 65.0391 3.9375C65.6432 3.57292 66.3307 3.39062 67.1016 3.39062C68.2578 3.39062 69.1667 3.75521 69.8281 4.48438C70.4948 5.21354 70.8281 6.2474 70.8281 7.58594V8.50781H65.4453C65.5182 9.0599 65.737 9.5026 66.1016 9.83594C66.4714 10.1693 66.9375 10.3359 67.5 10.3359C68.3698 10.3359 69.0495 10.0208 69.5391 9.39062L70.6484 10.6328C70.3099 11.112 69.8516 11.487 69.2734 11.7578C68.6953 12.0234 68.0547 12.1562 67.3516 12.1562ZM67.0938 5.21875C66.6458 5.21875 66.2812 5.36979 66 5.67188C65.724 5.97396 65.5469 6.40625 65.4688 6.96875H68.6094V6.78906C68.599 6.28906 68.4635 5.90365 68.2031 5.63281C67.9427 5.35677 67.5729 5.21875 67.0938 5.21875ZM76.4688 9.17969L79.0469 0.625H81.6562L77.6953 12H75.25L71.3047 0.625H73.9062L76.4688 9.17969ZM87.125 12C87.0208 11.7969 86.9453 11.5443 86.8984 11.2422C86.3516 11.8516 85.6406 12.1562 84.7656 12.1562C83.9375 12.1562 83.25 11.9167 82.7031 11.4375C82.1615 10.9583 81.8906 10.3542 81.8906 9.625C81.8906 8.72917 82.2214 8.04167 82.8828 7.5625C83.5495 7.08333 84.5104 6.84115 85.7656 6.83594H86.8047V6.35156C86.8047 5.96094 86.7031 5.64844 86.5 5.41406C86.3021 5.17969 85.987 5.0625 85.5547 5.0625C85.1745 5.0625 84.875 5.15365 84.6562 5.33594C84.4427 5.51823 84.3359 5.76823 84.3359 6.08594H82.0781C82.0781 5.59635 82.2292 5.14323 82.5312 4.72656C82.8333 4.3099 83.2604 3.98438 83.8125 3.75C84.3646 3.51042 84.9844 3.39062 85.6719 3.39062C86.7135 3.39062 87.5391 3.65365 88.1484 4.17969C88.763 4.70052 89.0703 5.4349 89.0703 6.38281V10.0469C89.0755 10.849 89.1875 11.4557 89.4062 11.8672V12H87.125ZM85.2578 10.4297C85.5911 10.4297 85.8984 10.3568 86.1797 10.2109C86.4609 10.0599 86.6693 9.85938 86.8047 9.60938V8.15625H85.9609C84.8307 8.15625 84.2292 8.54688 84.1562 9.32812L84.1484 9.46094C84.1484 9.74219 84.2474 9.97396 84.4453 10.1562C84.6432 10.3385 84.9141 10.4297 85.2578 10.4297ZM93.1875 12H90.9219V0H93.1875V12ZM98.9453 12.1562C97.7057 12.1562 96.6953 11.776 95.9141 11.0156C95.138 10.2552 94.75 9.24219 94.75 7.97656V7.75781C94.75 6.90885 94.9141 6.15104 95.2422 5.48438C95.5703 4.8125 96.0339 4.29688 96.6328 3.9375C97.237 3.57292 97.9245 3.39062 98.6953 3.39062C99.8516 3.39062 100.76 3.75521 101.422 4.48438C102.089 5.21354 102.422 6.2474 102.422 7.58594V8.50781H97.0391C97.112 9.0599 97.3307 9.5026 97.6953 9.83594C98.0651 10.1693 98.5312 10.3359 99.0938 10.3359C99.9635 10.3359 100.643 10.0208 101.133 9.39062L102.242 10.6328C101.904 11.112 101.445 11.487 100.867 11.7578C100.289 12.0234 99.6484 12.1562 98.9453 12.1562ZM98.6875 5.21875C98.2396 5.21875 97.875 5.36979 97.5938 5.67188C97.3177 5.97396 97.1406 6.40625 97.0625 6.96875H100.203V6.78906C100.193 6.28906 100.057 5.90365 99.7969 5.63281C99.5365 5.35677 99.1667 5.21875 98.6875 5.21875ZM105.789 3.54688L105.859 4.52344C106.464 3.76823 107.273 3.39062 108.289 3.39062C109.185 3.39062 109.852 3.65365 110.289 4.17969C110.727 4.70573 110.951 5.49219 110.961 6.53906V12H108.703V6.59375C108.703 6.11458 108.599 5.76823 108.391 5.55469C108.182 5.33594 107.836 5.22656 107.352 5.22656C106.716 5.22656 106.24 5.4974 105.922 6.03906V12H103.664V3.54688H105.789ZM115.383 1.46875V3.54688H116.828V5.20312H115.383V9.42188C115.383 9.73438 115.443 9.95833 115.562 10.0938C115.682 10.2292 115.911 10.2969 116.25 10.2969C116.5 10.2969 116.721 10.2786 116.914 10.2422V11.9531C116.471 12.0885 116.016 12.1562 115.547 12.1562C113.964 12.1562 113.156 11.3568 113.125 9.75781V5.20312H111.891V3.54688H113.125V1.46875H115.383ZM121.977 12.1562C120.737 12.1562 119.727 11.776 118.945 11.0156C118.169 10.2552 117.781 9.24219 117.781 7.97656V7.75781C117.781 6.90885 117.945 6.15104 118.273 5.48438C118.602 4.8125 119.065 4.29688 119.664 3.9375C120.268 3.57292 120.956 3.39062 121.727 3.39062C122.883 3.39062 123.792 3.75521 124.453 4.48438C125.12 5.21354 125.453 6.2474 125.453 7.58594V8.50781H120.07C120.143 9.0599 120.362 9.5026 120.727 9.83594C121.096 10.1693 121.562 10.3359 122.125 10.3359C122.995 10.3359 123.674 10.0208 124.164 9.39062L125.273 10.6328C124.935 11.112 124.477 11.487 123.898 11.7578C123.32 12.0234 122.68 12.1562 121.977 12.1562ZM121.719 5.21875C121.271 5.21875 120.906 5.36979 120.625 5.67188C120.349 5.97396 120.172 6.40625 120.094 6.96875H123.234V6.78906C123.224 6.28906 123.089 5.90365 122.828 5.63281C122.568 5.35677 122.198 5.21875 121.719 5.21875Z" fill="white"/>
</svg>
