<svg width="5" height="7" viewBox="0 0 5 7" fill="none" xmlns="http://www.w3.org/2000/svg">
<path d="M4.8208 7H0.435059V6.12988L2.50488 3.92383C2.78906 3.61328 2.99854 3.34229 3.1333 3.11084C3.271 2.87939 3.33984 2.65967 3.33984 2.45166C3.33984 2.16748 3.26807 1.94482 3.12451 1.78369C2.98096 1.61963 2.77588 1.5376 2.50928 1.5376C2.22217 1.5376 1.99512 1.63721 1.82812 1.83643C1.66406 2.03271 1.58203 2.29199 1.58203 2.61426H0.307617C0.307617 2.22461 0.399902 1.86865 0.584473 1.54639C0.771973 1.22412 1.03564 0.972168 1.37549 0.790527C1.71533 0.605957 2.10059 0.513672 2.53125 0.513672C3.19043 0.513672 3.70166 0.671875 4.06494 0.988281C4.43115 1.30469 4.61426 1.75146 4.61426 2.32861C4.61426 2.64502 4.53223 2.96729 4.36816 3.29541C4.2041 3.62354 3.92285 4.00586 3.52441 4.44238L2.06982 5.97607H4.8208V7Z" fill="white"/>
</svg>
